# xmcd
#
# Track frame offsets:
#	182
#	19285
#	43575
#	65315
#	80195
#	107792
#	121905
#	143787
#	163282
#	197975
#	214010
#	228757
#	244882
#	262540
#	282557
#	302205
#	319505
#
# Disc length: 4489 seconds
#
# Revision: 1
# Processed by: cddbd v1.5.1PL0 Copyright (c) Steve Scherf et al.
# Submitted via: audiograbber 1.82.01
#
DISCID=f5118711
DTITLE=Wynonna Judd - Collection
DYEAR=1998
DGENRE=Country
TTITLE0=No one else on earth (club mix)
TTITLE1=Making my way
TTITLE2=Somebody to love
TTITLE3=Change the world
TTITLE4=Heaven help my heart
TTITLE5=Rock bottom (single version)
TTITLE6=To be loved by you
TTITLE7=Father sun
TTITLE8=Freebird
TTITLE9=Let's make a baby king
TTITLE10=Girls with guitars
TTITLE11=Only love
TTITLE12=I saw the light
TTITLE13=She is his only need
TTITLE14=My strongest weakness
TTITLE15=Is it over yet (single version)
TTITLE16=Tell me why
EXTD=
EXTT0=
EXTT1=
EXTT2=
EXTT3=
EXTT4=
EXTT5=
EXTT6=
EXTT7=
EXTT8=
EXTT9=
EXTT10=
EXTT11=
EXTT12=
EXTT13=
EXTT14=
EXTT15=
EXTT16=
PLAYORDER=
